# xmcd
#
# Track frame offsets:
#	150
#	17244
#	28508
#	46728
#	62662
#	78342
#	89192
#	103734
#	120261
#	136060
#	149785
#	167085
#	183556
#	200033
#	213547
#	231098
#	250353
#	265738
#	281883
#	297087
#	314997
#
# Disc length: 4372 seconds
#
# Revision: 0
# Processed by: cddbd v1.5.2PL0 Copyright (c) Steve Scherf et al.
# Submitted via: EZCDAudioConverter 7.1.0.1
#
DISCID=48111215
DTITLE=Nu Urban Traxx Volume 249 US
DYEAR=2018
DGENRE=blues
TTITLE0=Childish Gambino - This Is America
TTITLE1=Kanye West - Lift Yourself
TTITLE2=Cardi B ft. Bad Bunny and J Balvin - I Like It
TTITLE3=Drake - Nice For What
TTITLE4=Anderson .Paak - Bubblin
TTITLE5=Lil Baby ft. Drake - Yes Indeed
TTITLE6=Nicki Minaj - Chun Li
TTITLE7=TK Kravitz ft. Jacquees - Ocean
TTITLE8=SZA - Garden (Say It Like Dat)
TTITLE9=Lil Pump - Esskeetit
TTITLE10=The Weeknd - Call Out My Name
TTITLE11=Queen Naija - Medicine
TTITLE12=Travis Scott ft. Lil Uzi Vert and Kanye West - Watch
TTITLE13=Diplo, French Montana, Lil Pump, Zhavia - Welcome To The Party
TTITLE14=Future ft. PARTYNEXTDOOR - No Shame
TTITLE15=Young Thug ft. Nicki Minaj - Anybody
TTITLE16=DJ Esco ft. Future - Chek
TTITLE17=NCredible Gang ft. Luke Nasty, Nick Cannon and Fat Joe - Only You
TTITLE18=Janelle Monae - I Like That
TTITLE19=Daniel Caesar ft. Kali Uchis - Get You
TTITLE20=Rich Homie Quan - Changed
EXTD=
EXTT0=
EXTT1=
EXTT2=
EXTT3=
EXTT4=
EXTT5=
EXTT6=
EXTT7=
EXTT8=
EXTT9=
EXTT10=
EXTT11=
EXTT12=
EXTT13=
EXTT14=
EXTT15=
EXTT16=
EXTT17=
EXTT18=
EXTT19=
EXTT20=
PLAYORDER=
